<svg width="1024" height="1024" viewBox="0 0 270.933 270.933" xmlns:xlink="http://www.w3.org/1999/xlink"
   xmlns="http://www.w3.org/2000/svg">
   <defs>
      <radialGradient xlink:href="#prefix__a" id="prefix__b" cx="226.062" cy="93.111" fx="226.062" fy="93.111"
         r="67.733" gradientTransform="matrix(-2.45426 1.9921 -1.45152 -1.78827 883.838 -197.356)"
         gradientUnits="userSpaceOnUse" />
      <linearGradient id="prefix__a">
         <stop offset="0" stop-color="#ff1a99" />
         <stop offset="1" stop-color="#00e599" />
      </linearGradient>
   </defs>
   <circle cx="135.467" cy="135.467" r="115.294" fill="#030521" stroke="#7c6703" stroke-width="7.938" />
   <path
      d="M155.595 89.265c6.128-.798 23.032 3.118 17.21 12.32-50.373 17.49-43.032 59.417-67.738 85.417L14.258 258.53l43.917-6.445 58.775-55.969c18.89-.278 35.328-4.037 49.107-10.37-1.499 5.728-5.219 15.133-5.219 15.133l1.066 2.88 24.199 11.348s-1.822 3.297-1.039 6.677l.622-.001c.27-9.46 15.725-6.938 18.81 1.185l.404-.007c-2.757-8.01-10.019-9.771-16.583-9.736-8.578-4.728-19.992-12.643-19.992-12.643 8.041-17.052 22.334-21.746 38.035-46.11 35.19-54.604-9.661-110.57-35.182-74.744-2.151 3.02-11.19 7.074-15.583 9.537z"
      fill="url(#prefix__b)" />
</svg>